<svg width="18" height="21" viewBox="0 0 18 21" fill="none" xmlns="http://www.w3.org/2000/svg">
    <path
        d="M6.85045 2.07321L6.08705 3.21429H11.9129L11.1496 2.07321C11.0893 1.98482 10.9888 1.92857 10.8804 1.92857H7.11563C7.00714 1.92857 6.9067 1.9808 6.84643 2.07321H6.85045ZM12.7567 1.00446L14.2313 3.21429H17.0357C17.5701 3.21429 18 3.6442 18 4.17857C18 4.71295 17.5701 5.14286 17.0357 5.14286H16.7143V17.3571C16.7143 19.133 15.2759 20.5714 13.5 20.5714H4.5C2.72411 20.5714 1.28571 19.133 1.28571 17.3571V5.14286H0.964286C0.429911 5.14286 0 4.71295 0 4.17857C0 3.6442 0.429911 3.21429 0.964286 3.21429H3.76875L5.2433 1.00045C5.66116 0.377679 6.36429 0 7.11563 0H10.8804C11.6317 0 12.3348 0.377679 12.7527 1.00045L12.7567 1.00446ZM3.21429 5.14286V17.3571C3.21429 18.0683 3.78884 18.6429 4.5 18.6429H13.5C14.2112 18.6429 14.7857 18.0683 14.7857 17.3571V5.14286H3.21429ZM6.42857 7.71429V16.0714C6.42857 16.425 6.13929 16.7143 5.78571 16.7143C5.43214 16.7143 5.14286 16.425 5.14286 16.0714V7.71429C5.14286 7.36071 5.43214 7.07143 5.78571 7.07143C6.13929 7.07143 6.42857 7.36071 6.42857 7.71429ZM9.64286 7.71429V16.0714C9.64286 16.425 9.35357 16.7143 9 16.7143C8.64643 16.7143 8.35714 16.425 8.35714 16.0714V7.71429C8.35714 7.36071 8.64643 7.07143 9 7.07143C9.35357 7.07143 9.64286 7.36071 9.64286 7.71429ZM12.8571 7.71429V16.0714C12.8571 16.425 12.5679 16.7143 12.2143 16.7143C11.8607 16.7143 11.5714 16.425 11.5714 16.0714V7.71429C11.5714 7.36071 11.8607 7.07143 12.2143 7.07143C12.5679 7.07143 12.8571 7.36071 12.8571 7.71429Z"
        fill="currentColor" />
</svg>