<svg width="40" height="40" viewBox="0 0 40 40" fill="none" xmlns="http://www.w3.org/2000/svg">
    <rect width="40" height="40" rx="10" fill="#FFEDE9" />
    <path
        d="M25.625 28.75H14.375C13.5462 28.75 12.7513 28.4208 12.1653 27.8347C11.5792 27.2487 11.25 26.4538 11.25 25.625V25C11.25 23.5082 11.8426 22.0774 12.8975 21.0225C13.9524 19.9676 15.3832 19.375 16.875 19.375H23.125C24.6168 19.375 26.0476 19.9676 27.1025 21.0225C28.1574 22.0774 28.75 23.5082 28.75 25V25.625C28.75 26.4538 28.4208 27.2487 27.8347 27.8347C27.2487 28.4208 26.4538 28.75 25.625 28.75ZM16.875 20.625C15.7147 20.625 14.6019 21.0859 13.7814 21.9064C12.9609 22.7269 12.5 23.8397 12.5 25V25.625C12.5 26.1223 12.6975 26.5992 13.0492 26.9508C13.4008 27.3025 13.8777 27.5 14.375 27.5H25.625C26.1223 27.5 26.5992 27.3025 26.9508 26.9508C27.3025 26.5992 27.5 26.1223 27.5 25.625V25C27.5 23.8397 27.0391 22.7269 26.2186 21.9064C25.3981 21.0859 24.2853 20.625 23.125 20.625H16.875Z"
        fill="#536DFE" />
    <path
        d="M23.75 15V14.375C23.75 13.5462 23.4208 12.7513 22.8347 12.1653C22.2487 11.5792 21.4538 11.25 20.625 11.25H19.375C18.5462 11.25 17.7513 11.5792 17.1653 12.1653C16.5792 12.7513 16.25 13.5462 16.25 14.375V15C16.25 15.8288 16.5792 16.6237 17.1653 17.2097C17.7513 17.7958 18.5462 18.125 19.375 18.125H20.625C21.4538 18.125 22.2487 17.7958 22.8347 17.2097C23.4208 16.6237 23.75 15.8288 23.75 15ZM17.5 15V14.375C17.5 13.8777 17.6975 13.4008 18.0492 13.0492C18.4008 12.6975 18.8777 12.5 19.375 12.5H20.625C21.1223 12.5 21.5992 12.6975 21.9508 13.0492C22.3025 13.4008 22.5 13.8777 22.5 14.375V15C22.5 15.4973 22.3025 15.9742 21.9508 16.3258C21.5992 16.6775 21.1223 16.875 20.625 16.875H19.375C18.8777 16.875 18.4008 16.6775 18.0492 16.3258C17.6975 15.9742 17.5 15.4973 17.5 15ZM25 25V26.25H20V25H25Z"
        fill="#F37063" />
</svg>