<svg width="60" height="60" viewBox="0 0 60 60" fill="none" xmlns="http://www.w3.org/2000/svg">
    <path
        d="M31.5674 6.92754V4.31254C31.5674 3.39254 30.8208 2.64587 29.9008 2.64587C28.9808 2.64587 28.2341 3.39254 28.2341 4.31254V6.94254C15.1374 7.85254 4.75745 18.79 4.75745 32.1142C4.75745 46.03 16.0816 57.3542 29.9999 57.3542C43.9183 57.3542 55.2424 46.03 55.2424 32.1142C55.2424 18.7234 44.7583 7.74004 31.5674 6.92754ZM29.9999 54.0209C17.9191 54.0209 8.09078 44.1925 8.09078 32.1142C8.09078 20.0342 17.9191 10.2067 29.9999 10.2067C42.0808 10.2067 51.9091 20.0342 51.9091 32.1142C51.9091 44.1925 42.0808 54.0209 29.9999 54.0209Z"
        fill="currentColor" />
    <path
        d="M21.4442 47.2409C16.0033 44.155 12.6233 38.3575 12.6233 32.1134C12.6233 31.6517 12.2508 31.28 11.79 31.28C11.3292 31.28 10.9567 31.6517 10.9567 32.1134C10.9567 38.9567 14.6608 45.3092 20.6225 48.6917C20.7517 48.765 20.8933 48.7992 21.0325 48.7992C21.3233 48.7992 21.605 48.6475 21.7583 48.3775C21.985 47.9767 21.8442 47.4667 21.4442 47.2409Z"
        fill="currentColor" />
    <path
        d="M25.9891 49.5268C25.6649 49.441 25.3458 49.351 25.0283 49.2485C24.5866 49.1085 24.1208 49.3527 23.9808 49.7893C23.8416 50.2277 24.0833 50.696 24.5216 50.836C24.8683 50.9477 25.2166 51.0477 25.5724 51.1385C25.6424 51.156 25.7124 51.1635 25.7816 51.1635C26.1524 51.1635 26.4908 50.9143 26.5874 50.5402C26.7024 50.096 26.4349 49.6402 25.9891 49.5268Z"
        fill="currentColor" />
    <path
        d="M51.5058 15.6218C51.8316 15.9468 52.2566 16.1084 52.6824 16.1084C53.1091 16.1084 53.5366 15.9443 53.8624 15.6184C54.5124 14.9668 54.5108 13.9118 53.8591 13.2618L49.5316 8.94509C48.8816 8.29343 47.8241 8.29676 47.1749 8.94843C46.5258 9.60009 46.5274 10.6551 47.1783 11.3051L51.5058 15.6218Z"
        fill="currentColor" />
    <path
        d="M31.5666 31.8033V18.4792C31.5666 17.5592 30.8199 16.8125 29.8999 16.8125C28.9799 16.8125 28.2333 17.5592 28.2333 18.4792V32.5233C28.2333 32.9825 28.4724 33.42 28.8058 33.7342L33.6833 38.2925C34.0058 38.5958 34.4166 38.7475 34.8274 38.7475C35.2699 38.7475 35.6866 38.5725 36.0133 38.2242C36.6474 37.5542 36.5908 36.5 35.9216 35.8683L31.5666 31.8033Z"
        fill="currentColor" />
</svg>